<svg xmlns="http://www.w3.org/2000/svg" width="880" height="352" viewBox="0 0 880 352" role="img" aria-labelledby="title desc">
  <title id="title">Dags att testa själv</title>
  <desc id="desc">Instruktionsbild med tre sätt att använda Copilot: som chattfönster, som eget fönster och i Teams.</desc>
  <style>
    .title{font:700 31px Arial, sans-serif;fill:#333}
    .body{font:700 17px Arial, sans-serif;fill:#5a5a5a}
    .line{stroke:#cfcfcf;stroke-width:1;stroke-dasharray:3 3}
    .browser{fill:#f8f8f8;stroke:#777;stroke-width:1.2}
    .bar{fill:#e8e8e8;stroke:#777;stroke-width:1}
    .tab{fill:#f7f7f7;stroke:#777;stroke-width:1}
    .screen-blue{fill:#c9ecfa;stroke:#777;stroke-width:1}
    .panel{fill:#efefef;stroke:#777;stroke-width:1}
    .bubble{fill:#fff;stroke:#777;stroke-width:1}
    .label{font:15px Arial, sans-serif;fill:#111}
    .small{font:700 8px Arial, sans-serif;fill:#333}
    .icon{fill:#fff;stroke:#777;stroke-width:1}
    .red{fill:#f05b46}.yellow{fill:#f6c84f}.blue{fill:#5f84ff}.green{fill:#55b66d}
  </style>

  <text class="title" x="5" y="38">Dags att testa själv!</text>
  <rect x="4" y="65" width="872" height="74" fill="#fff"/>
  <line class="line" x1="4" y1="65" x2="876" y2="65"/>
  <line class="line" x1="4" y1="139" x2="876" y2="139"/>
  <text class="body" x="10" y="87">Du ska du få testa tre olika sätt att använda Copilot. Följ instruktionerna på den här sidan.</text>
  <text class="body" x="10" y="126">Vill du få fler förslag på promptar? Det får du på nästa sida!</text>

  <g transform="translate(14 165)">
    <path class="tab" d="M0 8h88l4 8h151v162H0z"/>
    <rect class="browser" x="0" y="30" width="243" height="145"/>
    <rect class="screen-blue" x="5" y="59" width="233" height="111"/>
    <path class="bar" d="M24 42h160a6 6 0 0 1 0 12H24a6 6 0 0 1 0-12z"/>
    <rect class="bar" x="190" y="40" width="46" height="16" rx="8"/>
    <text class="small" x="202" y="51">Chat</text>
    <circle class="red" cx="224" cy="48" r="5"/><circle class="yellow" cx="229" cy="48" r="5"/><circle class="green" cx="226" cy="52" r="5"/><circle class="blue" cx="232" cy="52" r="5"/>
    <path class="bubble" d="M25 64 217 50 212 118H25z"/>
    <text class="label" x="33" y="88">Copilot som ett chattfönster</text>
    <text class="label" x="33" y="108">i din webbläsare.</text>
    <path class="bubble" d="M211 35 225 26 222 43 235 54 219 51 208 64z"/>
    <path d="M13 52 13 46 16 43 19 46 19 52h-2v-4h-2v4z" fill="#fff" stroke="#777" stroke-width="1"/>
  </g>

  <g transform="translate(306 166)">
    <path class="tab" d="M0 8h88l4 8h151v162H0z"/>
    <rect class="browser" x="0" y="31" width="243" height="145"/>
    <rect class="panel" x="5" y="62" width="183" height="108"/>
    <rect class="panel" x="193" y="62" width="45" height="108"/>
    <path class="bar" d="M24 43h160a6 6 0 0 1 0 12H24a6 6 0 0 1 0-12z"/>
    <rect class="bar" x="190" y="41" width="46" height="16" rx="8"/>
    <text class="small" x="202" y="52">Chat</text>
    <circle class="red" cx="224" cy="49" r="5"/><circle class="yellow" cx="229" cy="49" r="5"/><circle class="green" cx="226" cy="53" r="5"/><circle class="blue" cx="232" cy="53" r="5"/>
    <text class="small" x="197" y="75">Chat</text>
    <path class="bubble" d="M36 84 225 65 218 139H36z"/>
    <text class="label" x="43" y="105">Copilot som eget fönster</text>
    <text class="label" x="43" y="125">i din webbläsare.</text>
    <path class="bubble" d="M225 47 238 40 235 57 245 69 230 64 219 78z"/>
    <path d="M13 53 13 47 16 44 19 47 19 53h-2v-4h-2v4z" fill="#fff" stroke="#777" stroke-width="1"/>
    <path d="M225 66h9v9m0-9-10 10" fill="none" stroke="#777" stroke-width="1.2"/>
  </g>

  <g transform="translate(598 166)">
    <rect class="browser" x="0" y="0" width="243" height="178" rx="1"/>
    <rect class="bar" x="25" y="8" width="176" height="12" rx="6"/>
    <rect class="panel" x="26" y="27" width="211" height="143"/>
    <line x1="25" y1="27" x2="25" y2="170" stroke="#777"/>
    <circle class="icon red" cx="14" cy="28" r="3"/><circle class="icon yellow" cx="14" cy="43" r="3"/><circle class="icon blue" cx="14" cy="58" r="3"/><circle class="icon green" cx="14" cy="75" r="3"/>
    <path d="M51 71h155a8 8 0 0 1 8 8v24a8 8 0 0 1-8 8H51a8 8 0 0 1-8-8V79a8 8 0 0 1 8-8z" fill="#fff" stroke="#777"/>
    <path d="M50 101h13m-6-6v13" stroke="#777" stroke-width="1.2"/>
    <path class="bubble" d="M22 4 151 12 150 36 46 45z"/>
    <text class="label" x="36" y="30">Copilot i Teams.</text>
    <line x1="34" y1="43" x2="8" y2="90" stroke="#777"/>
    <path d="M0 92h2m0 0h2m-2 0v-2m0 2v2" stroke="#5f84ff" stroke-width="1.3"/>
  </g>
</svg>
